<?xml version="1.0" encoding="UTF-8"?> <svg xmlns="http://www.w3.org/2000/svg" width="466.987" height="152.308"><switch><g><path fill="#231F20" d="M284.267 0h2.4v152.308h-2.4z"></path><g fill="#231F20"><path d="M455.366 135.121h-3.205v16.861h3.332v-9.953c0-2.363 1.779-3.967 4.301-3.967.592 0 1.578.117 1.859.203v-3.279c-.355-.092-.99-.141-1.488-.141-2.195 0-4.068 1.209-4.547 2.867h-.252v-2.591zm-26.556-6.569h-3.328v23.436h3.328v-23.436zm-8.924 0h-3.332v23.436h3.332v-23.436zm-.655-27.619h-3.312v16.855h3.312v-16.855zm-3.81-4.986c0 1.148.912 2.027 2.158 2.027 1.232 0 2.143-.879 2.143-2.027 0-1.16-.91-2.039-2.143-2.039-1.246 0-2.158.879-2.158 2.039m-14.975 46.058c.186-2.641 1.906-4.373 4.361-4.373 2.465 0 4.074 1.713 4.15 4.373h-8.511zm-3.39 1.602c0 5.385 2.957 8.701 7.785 8.701 3.854 0 6.553-1.855 7.305-4.881h-3.199c-.623 1.32-1.998 2.051-4.012 2.051-2.66 0-4.381-1.873-4.488-4.834v-.184h11.902v-1.166c0-5.293-2.832-8.492-7.52-8.492-4.756 0-7.773 3.42-7.773 8.805m-2.873-39.947c1.98 0 3.244 1.16 3.244 3.062v11.066h3.27v-10.6c0-1.982 1.41-3.529 3.559-3.529 2.184 0 3.27 1.111 3.27 3.389v10.74h3.326v-11.605c0-3.52-1.98-5.582-5.389-5.582-2.33 0-4.273 1.197-5.123 3.039h-.266c-.732-1.842-2.332-3.039-4.639-3.039-2.244 0-3.947 1.137-4.691 3.039h-.244v-2.707h-3.205v16.855h3.324v-10.305c-.001-2.173 1.534-3.823 3.564-3.823m-10.393 43.853h-3.324c.295 2.982 2.91 4.795 6.914 4.795 4.029 0 6.986-2.119 6.986-5.293 0-2.48-1.504-3.855-4.709-4.6l-2.801-.65c-1.83-.418-2.676-1.051-2.676-2.057 0-1.314 1.408-2.205 3.264-2.205 1.885 0 3.098.793 3.406 2.033h3.188c-.326-2.973-2.803-4.734-6.594-4.734-3.805 0-6.547 2.105-6.547 5.084 0 2.518 1.484 3.961 4.691 4.709l2.941.682c1.686.412 2.471 1.057 2.471 2.064 0 1.344-1.463 2.277-3.539 2.277-2.011.001-3.251-.816-3.671-2.105m-17.738-5.508c.189-2.641 1.906-4.373 4.365-4.373 2.465 0 4.074 1.713 4.146 4.373h-8.511zm-3.387 1.602c0 5.385 2.953 8.701 7.783 8.701 3.861 0 6.551-1.855 7.307-4.881h-3.203c-.619 1.32-1.998 2.051-4.01 2.051-2.662 0-4.383-1.873-4.49-4.834v-.184h11.902v-1.166c0-5.293-2.828-8.492-7.52-8.492-4.751 0-7.769 3.42-7.769 8.805m-10.992-10.91c2.678 0 4.314 1.473 4.314 3.904 0 2.486-1.547 3.912-4.221 3.912h-4.986v-7.816h4.893zm.476-3.053h-8.832v22.338h3.463v-8.516h4.893l4.551 8.516h4.006l-5.01-9.088c2.723-.926 4.332-3.369 4.332-6.373 0-4.193-2.893-6.877-7.403-6.877m-2.142-26.746c0 2.775-1.746 4.322-4.74 4.322h-4.365v-8.701h4.365c3.054 0 4.74 1.541 4.74 4.379m3.545 0c0-4.428-3.004-7.441-7.367-7.441h-8.746v22.332h3.463v-7.523h5.17c4.38-.001 7.48-3.003 7.48-7.368m11.195.977c.588 0 1.578.109 1.859.201v-3.283c-.359-.094-.994-.137-1.492-.137-2.191 0-4.068 1.205-4.549 2.861h-.246v-2.584h-3.203v16.855h3.328v-9.955c0-2.369 1.778-3.958 4.303-3.958m11.238-.436c2.459 0 4.068 1.719 4.15 4.371h-8.52c.189-2.635 1.915-4.371 4.37-4.371m.014-2.838c-4.748 0-7.771 3.426-7.771 8.811 0 5.393 2.963 8.701 7.793 8.701 3.852 0 6.545-1.859 7.297-4.875h-3.199c-.623 1.32-1.998 2.045-4.012 2.045-2.66 0-4.375-1.879-4.49-4.832v-.186h11.91v-1.16c-.001-5.293-2.839-8.504-7.528-8.504m36.512-88.425C415.21 8.958 416.95 4.409 416.478 0c-3.871.135-8.537 2.53-11.141 5.821-2.553 2.861-4.262 7.387-3.686 11.698 3.887.343 8.149-2.114 10.86-5.343m9.49 27.784c-.096-9.173 7.926-13.814 8.262-13.993-4.373-6.552-11.494-7.466-13.834-7.559-6.018-.608-11.537 3.487-14.299 3.487-2.879 0-7.475-3.407-12.387-3.242-6.438.037-12.385 3.703-15.738 9.463-6.611 11.225-1.672 28.171 4.812 37.651 3.275 4.734 7.023 9.788 11.988 9.579 4.785-.185 6.615-2.966 12.01-2.966 5.791 0 7.445 2.966 12.627 2.917 5.041-.136 8.449-4.637 11.695-9.352 3.545-5.441 5.041-10.568 5.105-10.844-.095-.018-10.122-3.64-10.241-15.141m13.398 77.829h3.197v-16.855h-3.324v9.855c0 2.646-1.471 4.248-4.17 4.248-2.445 0-3.539-1.301-3.539-4.027v-10.076h-3.324v10.947c0 3.961 2.066 6.232 5.803 6.232 2.551 0 4.27-1.086 5.092-3.002h.266v2.678zm9.473 24.216h-8.506c.184-2.641 1.9-4.373 4.365-4.373 2.456 0 4.069 1.713 4.141 4.373m-4.123-7.203c-4.762 0-7.773 3.42-7.773 8.805s2.957 8.701 7.787 8.701c3.852 0 6.545-1.855 7.307-4.881h-3.209c-.617 1.32-1.992 2.051-4.004 2.051-2.668 0-4.383-1.873-4.49-4.834v-.184h11.902v-1.166c0-5.293-2.829-8.492-7.52-8.492m26.238-17.013v-11.605c0-3.52-1.98-5.582-5.389-5.582-2.34 0-4.27 1.197-5.123 3.039h-.258c-.75-1.842-2.34-3.039-4.648-3.039-2.244 0-3.943 1.137-4.689 3.039h-.244v-2.707h-3.209v16.855h3.334v-10.305c0-2.174 1.525-3.824 3.559-3.824 1.98 0 3.252 1.16 3.252 3.062v11.066h3.262v-10.6c0-1.982 1.406-3.529 3.559-3.529 2.18 0 3.264 1.111 3.264 3.389v10.74h3.33zM35.613 90.046c0 4.096-.605 7.049-1.805 8.836-1.038 1.615-2.671 2.947-4.897 3.967-2.22 1.02-4.654 1.529-7.282 1.529-2.471 0-4.47-.621-5.999-1.879-1.52-1.26-2.287-2.775-2.287-4.568 0-1.732.648-3.084 1.956-4.053 1.295-.965 2.659-1.621 4.086-1.953 1.427-.332 4.006-.848 7.721-1.553 3.721-.713 6.558-1.383 8.507-2.021v1.695zm13.512 20.6c1.29-.988 1.931-2.1 1.931-3.309 0-.693-.415-2.248-1.247-4.666-.822-2.408-1.243-4.723-1.243-6.957.031-2.365.062-4.514.074-6.447.019-1.941.028-4.293.028-7.062 0-4.396-.694-7.915-2.076-10.579-1.378-2.653-3.743-4.6-7.08-5.828-3.353-1.228-7.948-1.836-13.797-1.836-5.226 0-9.594.633-13.097 1.904-3.506 1.271-6.091 2.886-7.752 4.856-1.652 1.959-2.484 3.979-2.484 6.061 0 1.326.541 2.419 1.637 3.273 1.086.854 2.376 1.277 3.871 1.277 1.655 0 2.735-.27 3.239-.805.503-.533 1.363-1.639 2.579-3.309 1.219-1.677 2.683-2.93 4.381-3.778 1.71-.834 4.252-1.246 7.626-1.246 3.93 0 6.521.725 7.773 2.18 1.256 1.461 1.962 3.752 2.125 6.872a177.53 177.53 0 0 1-7.771 1.842 300.635 300.635 0 0 1-8.603 1.664c-3.34.613-5.44 1-6.288 1.172-4.025.781-7.187 2.316-9.502 4.6C1.151 92.796 0 95.566 0 98.796c0 2.4.691 4.623 2.087 6.674 1.403 2.051 3.39 3.684 5.975 4.869 2.576 1.209 5.575 1.805 8.989 1.805 3.73 0 7.098-.559 10.104-1.67 3-1.117 6.119-2.781 9.333-5.004 1.495 2.168 2.904 3.812 4.237 4.955 1.332 1.148 2.677 1.719 4.043 1.719 1.621 0 3.073-.502 4.357-1.498m18.675-.307c1.25-1.186 1.873-2.99 1.873-5.391v-57.97c0-2.395-.617-4.188-1.848-5.392-1.234-1.197-2.861-1.799-4.872-1.799-2.014 0-3.61.608-4.799 1.824-1.188 1.209-1.781 2.996-1.781 5.366v57.97c0 2.309.611 4.084 1.83 5.33 1.215 1.24 2.8 1.865 4.75 1.865 1.98.002 3.594-.6 4.847-1.803m45.051-26.058H88.729c.46-3.984 1.75-7 3.881-9.033 2.124-2.038 4.841-3.058 8.153-3.058 3.479 0 6.282 1.001 8.406 3.015 2.128 2.007 3.353 5.029 3.682 9.076m12.863-.387c0-3.211-.93-6.355-2.787-9.45-1.849-3.096-4.633-5.606-8.348-7.565-3.725-1.946-8.182-2.917-13.374-2.917-3.994 0-7.635.565-10.911 1.707-3.281 1.143-6.048 2.782-8.286 4.919-2.238 2.143-3.948 4.697-5.118 7.687-1.164 2.99-1.753 6.238-1.753 9.727 0 7.43 2.37 13.312 7.117 17.641 4.74 4.336 11.387 6.502 19.925 6.502 3.736 0 7.043-.436 9.916-1.307 2.874-.859 5.263-1.947 7.16-3.268 1.9-1.312 3.321-2.689 4.258-4.113.949-1.438 1.415-2.684 1.415-3.746 0-1.221-.421-2.16-1.265-2.818-.841-.668-1.949-1-3.312-1-1.265 0-2.244.264-2.926.773-1.652 1.387-2.996 2.492-4.04 3.303a28.662 28.662 0 0 1-3.408 2.271 15.142 15.142 0 0 1-3.825 1.561c-1.32.332-2.772.498-4.369.498-2.37 0-4.534-.516-6.496-1.561-1.968-1.037-3.54-2.584-4.728-4.635-1.188-2.045-1.79-4.422-1.83-7.111h26.019c3.473 0 6.168-.436 8.087-1.32 1.915-.878 2.879-2.799 2.879-5.778m42.441 3.979c0 3.242-.574 5.992-1.703 8.283-1.139 2.277-2.646 3.984-4.535 5.139a11.667 11.667 0 0 1-6.137 1.707c-3.703 0-6.811-1.307-9.306-3.924-2.502-2.615-3.745-6.273-3.745-10.99 0-4.992 1.249-8.773 3.771-11.347 2.517-2.566 5.609-3.856 9.281-3.856 2.303 0 4.408.596 6.305 1.799 1.9 1.204 3.391 2.917 4.459 5.159 1.077 2.233 1.61 4.91 1.61 8.03m11.617 10.162c1.152-3.039 1.732-6.387 1.732-10.033 0-4.93-1.002-9.211-3-12.821-1.992-3.61-4.715-6.35-8.164-8.229-3.438-1.885-7.205-2.818-11.297-2.818-3.408 0-6.463.646-9.162 1.922-2.695 1.29-5.287 3.305-7.794 6.049v-1.431c0-2.137-.593-3.776-1.774-4.912-1.188-1.142-2.724-1.72-4.608-1.72-1.912 0-3.426.565-4.528 1.677-1.105 1.104-1.651 2.788-1.651 5.047v54.98c0 2.572.402 4.525 1.212 5.869.811 1.34 2.472 2.016 4.968 2.016 4.255 0 6.383-2.598 6.383-7.793v-21.719c2.34 2.635 4.802 4.625 7.386 5.988 2.58 1.355 5.771 2.031 9.57 2.031 3.148 0 6.1-.553 8.842-1.664 2.74-1.117 5.123-2.707 7.141-4.77 2.012-2.064 3.596-4.619 4.744-7.669m53.725 6.914V82.285c0-2.277-.166-4.291-.492-6.042-.322-1.75-.957-3.334-1.9-4.74-1.488-2.426-3.553-4.273-6.162-5.545-2.615-1.277-5.615-1.916-8.988-1.916-2.238 0-4.332.252-6.281.762-1.949.504-3.73 1.265-5.334 2.277-1.607 1.008-3.256 2.377-4.947 4.115V46.979c0-2.37-.59-4.157-1.779-5.366-1.182-1.216-2.83-1.824-4.941-1.824-2.082 0-3.697.602-4.848 1.799-1.158 1.204-1.736 2.997-1.736 5.392v57.97c0 4.789 2.199 7.195 6.584 7.195 2.111 0 3.76-.613 4.941-1.848 1.189-1.221 1.779-3.002 1.779-5.348V89.31c0-4.508.357-7.645 1.074-9.408.939-2.08 2.357-3.714 4.264-4.918 1.896-1.197 4.031-1.799 6.4-1.799 3.541 0 5.941 1.02 7.213 3.059 1.264 2.038 1.896 4.95 1.896 8.731v19.975c0 4.789 2.189 7.195 6.586 7.195 2.004 0 3.619-.613 4.842-1.822 1.218-1.218 1.829-3.005 1.829-5.374"></path></g></g></switch></svg> 